<mxfile host="app.diagrams.net" agent="Mozilla/5.0 (Windows NT 10.0; Win64; x64) AppleWebKit/537.36 (KHTML, like Gecko) Chrome/136.0.0.0 Safari/537.36" version="26.2.14">
  <diagram name="Page-1" id="rex2xva8ImALtjzCcnfC">
    <mxGraphModel dx="1426" dy="789" grid="1" gridSize="10" guides="1" tooltips="1" connect="1" arrows="1" fold="1" page="1" pageScale="1" pageWidth="850" pageHeight="1100" math="0" shadow="0">
      <root>
        <mxCell id="0" />
        <mxCell id="1" parent="0" />
        <mxCell id="jUQuJ7ZoHEH8EmfU06ju-1" value="&lt;font style=&quot;font-size: 18px;&quot;&gt;&lt;b&gt;&lt;u&gt;RAILWAY&lt;/u&gt;&lt;/b&gt;&lt;/font&gt;&lt;div&gt;&lt;font style=&quot;font-size: 18px;&quot;&gt;&lt;b&gt;&lt;u&gt;RESERVATION&lt;/u&gt;&lt;/b&gt;&lt;/font&gt;&lt;/div&gt;" style="ellipse;whiteSpace=wrap;html=1;aspect=fixed;" vertex="1" parent="1">
          <mxGeometry x="360" y="275" width="205" height="205" as="geometry" />
        </mxCell>
        <mxCell id="jUQuJ7ZoHEH8EmfU06ju-2" value="&lt;b&gt;&lt;font style=&quot;font-size: 16px;&quot;&gt;PASSENGER&lt;/font&gt;&lt;/b&gt;" style="whiteSpace=wrap;html=1;aspect=fixed;" vertex="1" parent="1">
          <mxGeometry x="40" y="325" width="130" height="130" as="geometry" />
        </mxCell>
        <mxCell id="jUQuJ7ZoHEH8EmfU06ju-3" value="&lt;b&gt;&lt;font style=&quot;font-size: 14px;&quot;&gt;ADMIN&lt;/font&gt;&lt;/b&gt;" style="whiteSpace=wrap;html=1;aspect=fixed;" vertex="1" parent="1">
          <mxGeometry x="720" y="300" width="125" height="125" as="geometry" />
        </mxCell>
        <mxCell id="jUQuJ7ZoHEH8EmfU06ju-5" value="" style="endArrow=classic;html=1;rounded=0;" edge="1" parent="1">
          <mxGeometry width="50" height="50" relative="1" as="geometry">
            <mxPoint x="560" y="420" as="sourcePoint" />
            <mxPoint x="710" y="420" as="targetPoint" />
          </mxGeometry>
        </mxCell>
        <mxCell id="jUQuJ7ZoHEH8EmfU06ju-8" value="" style="endArrow=classic;html=1;rounded=0;entryX=1.008;entryY=0.823;entryDx=0;entryDy=0;entryPerimeter=0;" edge="1" parent="1" target="jUQuJ7ZoHEH8EmfU06ju-2">
          <mxGeometry width="50" height="50" relative="1" as="geometry">
            <mxPoint x="360" y="432" as="sourcePoint" />
            <mxPoint x="450" y="380" as="targetPoint" />
          </mxGeometry>
        </mxCell>
        <mxCell id="jUQuJ7ZoHEH8EmfU06ju-9" value="" style="endArrow=classic;html=1;rounded=0;exitX=1;exitY=0.123;exitDx=0;exitDy=0;exitPerimeter=0;" edge="1" parent="1" source="jUQuJ7ZoHEH8EmfU06ju-2">
          <mxGeometry width="50" height="50" relative="1" as="geometry">
            <mxPoint x="400" y="430" as="sourcePoint" />
            <mxPoint x="360" y="340" as="targetPoint" />
          </mxGeometry>
        </mxCell>
        <mxCell id="jUQuJ7ZoHEH8EmfU06ju-10" value="" style="endArrow=classic;html=1;rounded=0;exitX=1;exitY=0.5;exitDx=0;exitDy=0;" edge="1" parent="1" source="jUQuJ7ZoHEH8EmfU06ju-2">
          <mxGeometry width="50" height="50" relative="1" as="geometry">
            <mxPoint x="180" y="368" as="sourcePoint" />
            <mxPoint x="360" y="390" as="targetPoint" />
          </mxGeometry>
        </mxCell>
        <mxCell id="jUQuJ7ZoHEH8EmfU06ju-11" value="" style="endArrow=classic;html=1;rounded=0;entryX=0;entryY=0.5;entryDx=0;entryDy=0;entryPerimeter=0;" edge="1" parent="1" target="jUQuJ7ZoHEH8EmfU06ju-3">
          <mxGeometry width="50" height="50" relative="1" as="geometry">
            <mxPoint x="570" y="362.5" as="sourcePoint" />
            <mxPoint x="710" y="364.5" as="targetPoint" />
          </mxGeometry>
        </mxCell>
        <mxCell id="jUQuJ7ZoHEH8EmfU06ju-12" value="" style="endArrow=classic;html=1;rounded=0;" edge="1" parent="1">
          <mxGeometry width="50" height="50" relative="1" as="geometry">
            <mxPoint x="710" y="324.5" as="sourcePoint" />
            <mxPoint x="560" y="324.5" as="targetPoint" />
          </mxGeometry>
        </mxCell>
        <mxCell id="jUQuJ7ZoHEH8EmfU06ju-14" value="Fill cancellation form" style="text;html=1;align=center;verticalAlign=middle;resizable=0;points=[];autosize=1;strokeColor=none;fillColor=none;fontStyle=1;fontSize=13;" vertex="1" parent="1">
          <mxGeometry x="185" y="310" width="140" height="30" as="geometry" />
        </mxCell>
        <mxCell id="jUQuJ7ZoHEH8EmfU06ju-16" value="Fill Reservation Form" style="text;strokeColor=none;align=center;fillColor=none;html=1;verticalAlign=middle;whiteSpace=wrap;rounded=0;fontStyle=1;fontSize=13;" vertex="1" parent="1">
          <mxGeometry x="175" y="362.5" width="160" height="30" as="geometry" />
        </mxCell>
        <mxCell id="jUQuJ7ZoHEH8EmfU06ju-17" value="&lt;b&gt;&lt;font style=&quot;font-size: 13px;&quot;&gt;Ticket Info&lt;/font&gt;&lt;/b&gt;" style="text;html=1;align=center;verticalAlign=middle;resizable=0;points=[];autosize=1;strokeColor=none;fillColor=none;" vertex="1" parent="1">
          <mxGeometry x="210" y="410" width="90" height="30" as="geometry" />
        </mxCell>
      </root>
    </mxGraphModel>
  </diagram>
</mxfile>
